<?xml version="1.0" encoding="utf-8"?>
<!-- Generator: Adobe Illustrator 21.0.0, SVG Export Plug-In . SVG Version: 6.00 Build 0)  -->
<svg version="1.1" id="dividerblack_Image" xmlns="http://www.w3.org/2000/svg" xmlns:xlink="http://www.w3.org/1999/xlink" x="0px"
	 y="0px" viewBox="0 0 2860.3 31.5" style="enable-background:new 0 0 2860.3 31.5;" xml:space="preserve">
<style type="text/css">
	.st0{fill:#f8f8f8;}
</style>
<title>divider</title>
<path class="st0" d="M-2.5-0.8C5.7,1.2,11.2,3,14.8,4.3c0.6,0.2,2,0.7,3.8,1.3c4.5,1.6,7.1,2.8,11.3,3c1.3,0.1,4.6-0.2,11-0.7
	c2.9-0.2,5.8-0.3,8.7-0.7C55,6.7,56.7,6,59.3,7c2.1,0.8,2,1.7,4.3,2.7c2.4,0.9,5.1,1.2,7.7,0.7c7.4-1.1,12.3,1.8,47.3,0.3
	c12.9-0.5,19.5-1.2,31.3-0.3c4.7,0.4,8.1,0.8,9.7,1c18.7,2.3,35.8,1.1,75,0.7c29.3-0.3,38.5,0.1,42.7,0.3c14.4,0.8,13.9,1.5,27.7,2
	c19.7,0.8,24.6-0.5,37,2c4.5,1,9.1,1.8,13.7,2.3c1.5,0.1,4.9,0.5,18.7,0.3c9.5-0.1,14.3-0.1,19.3-0.7c5.8-0.6,7.2-1.2,12.7-2
	C410.8,15.6,436,12,454,18c1.5,0.5,3.1,1,4.6,1.3c7.6,1.7,12.8,0.6,18.7,0c13.5-1.3,14.4,1.8,28.3,0c5.3-0.7,5.1-1.1,10.7-2
	c15.1-2.4,23.5-0.4,41,0c9.2,0.2,6.5-0.4,24.7-0.7c7.4-0.1,29.3-0.4,58.3,1c21.6,1,19.3,1.6,30,1.7c16.8,0,24.4-1.4,41-0.3
	c8.7,0.6,12.3,1.4,20,2.3c32.7,4,43.9-1,84.7,0.7c18.4,0.8,14.2,1.7,31.7,2.3c32.4,1.1,40.2-2.4,64,0c8,0.9,16,1.3,24,1.3
	c7.6,0,13.2-0.4,17.3-0.7c19.1-1.3,10.8-0.4,41.7-2.3c21-1.3,34-2.2,52-3.7c8.8-0.7,10.9-1,16.7-1.3c14.9-0.9,25.4-0.8,37.3-0.7
	c22,0.2,0.3-0.1,56.7,0.3c23.5,0.2,31.7,0.3,42,1.3c5.7,0.6,8.7,1.1,15,1.3c8.4,0.3,15.6-0.2,21,1c3.5,0.8,4.7,1,7,1.3
	c1.7,0.3,3.3,0.5,3.3,0.5h0.3c0,0,1.8,0.2,5.7,0.5c-1.3,0.9-2.6,1.8-4,2.5c-0.8,0.4-1.4,0.7-1.4,0.9s2,0.1,3.8,0
	c2.6-0.2,5.2-0.6,5.2-0.6c8.3,1.3,15,2,19.3,2.3c22,1.8,30.6-0.5,52.3,1.7c2.8,0.3,6.1,0.7,11.3,1c11.4,0.7,20,0.4,22.7,0.3
	c22.9-0.8,45.8-0.6,68.7-1c37.8-0.7,32,0.8,84.3,0.3c35.1-0.3,34.6-1,55-0.7c15.1,0.2,23.5,0.7,38-0.3c11.6-0.8,12.6-1.6,31.7-3.3
	c2.7-0.2,15.8-1.4,33.3-2.3c10.4-0.5,18.4-1,28.7-1c3.6,0,23.2-0.1,25.5,0.6c0,0,0.4,0.1,0.5,0c0.2-0.4-4.2-2.5-4-3.7
	c0.3-1.6,10.4-0.8,22.7,0c0,0,1.2,0.1,18.3,1c11.9,0.6,22.5,1.2,34.3,0.7c12.5-0.6,10.9-1.7,30-3.3c8.5-0.7,15.7-1,30-1.7
	c5.7-0.3,17.4-0.8,27.7-1c22.3-0.5,38.3,0.3,49.7,0.7c23.2,0.8,24.7-0.2,76-0.7c32.7-0.3,56.7-0.2,84,0c62.6,0.4,96.1-1,96,1.3
	c0,1.4,48.3,2.8,48.3,1.3c0-0.5,4-3,4.3-2.7c1.1,1.1,15.8,4.2,16,2.7c3-17.9,41.2,3,52-0.7c4.9-1.6,10.7-4.2,19.3-4
	c4.3,0.1,8.6,0.9,12.7,2.3c14.5,4.5,20-4.9,43.3-5.3h4.3c31.8,0,35.3,0,39.7,0c0,0,3.8,0,38.3,0.7c1.7,1.3,3.6,2.3,5.7,3
	c2.6,0.9,5.3,1.4,8,1.3c4.7-0.1,5.2-1.5,11-1.7c2-0.2,4.1,0,6,0.7c1.7,0.6,2.3,1.4,4.3,2c1.4,0.4,2.9,0.7,4.3,0.7
	c3.5,0.1,4.1-0.9,9.3-1.7c3.6-0.5,4.9-0.3,5.7,0c1.5,0.5,1.8,1.1,3.7,2c1.9,0.9,3.9,1.5,6,1.7c1.4,0.1,3.6-0.3,8-1
	c1.5-0.4,3.1-0.5,4.7-0.3c1.4,0.3,2.8,0.9,4,1.7c2.2,1.2,4.9,1.3,10.3,1.3c6.6,0.1,7.7-0.9,12,0c1.3,0.3,2,0.5,4.3,1
	c1.3,0.3,3.6,0.7,7,1c6.1,0.6,9.2,0.9,11-0.3c0.9-0.8,1.9-1.4,3-1.7c1.2-0.2,2.5-0.1,3.7,0.3c2,0.7,2,1.5,4,2.7c1.1,0.6,2.8,1,6,1.7
	c3.7,0.8,4.4,0.6,5,0.3c1.1-0.7,1.9-1.8,2.3-3c1.3-2.9,0.4-4.4,1.7-5.7s3.5-1.1,4-1c2.1,0.2,2.4,1.3,6.7,4c1.6,1.2,3.4,1.9,5.3,2.3
	c0.3,0,3,0.5,3.3-0.3s-1.4-1.3-3-3.7c-1-1.7-1.8-3.4-2.3-5.3c2-0.2,4.1,0,6,0.7c1.5,0.5,5.8,2.7,4.3,2c2-0.3,3.3-0.9,3.3-1.7
	c0-0.3-0.1-0.6-0.4-0.8c-0.8-0.9-1.9-1.5-3-1.9c0-1.1,41.3,0,41.3,0c30.1,0.8,45.1,1.3,59.3-0.3c8-0.9,18.7-2.5,33.7-3
	c9.9-0.3,17.3-0.3,17.3-0.3c10.2,0,12,0.3,17.3,0c8-0.5,11.4-1.6,19.7-3c15.9-2.7,23.2-2.9,26.7-2.6c1,0.1,1.8,0.1,1.8,0.2
	C2862.3,3.6,1569.3,1.8-2.5-0.8z"/>
</svg>
