<svg id="dividerblack_Image" data-name="dividerblack Image" xmlns="http://www.w3.org/2000/svg" viewBox="0 0 2860.5 29.15"><defs><style>.cls-1{fill:#fff;}</style></defs><title>divider</title><path class="cls-1" d="M2860.5,29c-5.9-1.4-10.5-2.8-13.6-3.8-1.4-.5-2.2-.7-3.8-1.2-4.5-1.5-7.1-2.6-11.3-2.8-1.3-.1-4.6.2-11,.7-2.9.2-5.8.3-8.7.7-5.4.5-7.1,1.1-9.7.2-2.1-.8-2-1.6-4.3-2.5a15.53,15.53,0,0,0-7.7-.7c-7.4,1-12.3-1.7-47.3-.3-12.9.5-19.5,1.1-31.3.3-4.7-.4-8.1-.8-9.7-.9-18.7-2.2-35.8-1-75-.7-29.3.3-38.5-.1-42.7-.3-14.4-.8-13.9-1.4-27.7-1.9-19.7-.8-24.6.5-37-1.9a126,126,0,0,0-13.7-2.2c-1.5-.1-4.9-.5-18.7-.3-9.5.1-14.3.1-19.3.7-5.8.6-7.2,1.1-12.7,1.9-4.4.7-29.6,4-47.6-1.6a34.47,34.47,0,0,0-4.6-1.2c-7.6-1.6-12.8-.6-18.7,0-13.5,1.2-14.4-1.7-28.3,0-5.3.7-5.1,1-10.7,1.9-15.1,2.3-23.5.4-41,0-9.2-.2-6.5.4-24.7.7-7.4.1-29.3.4-58.3-.9-21.6-.9-19.3-1.5-30-1.6-16.8,0-24.4,1.3-41,.3-8.7-.6-12.3-1.3-20-2.2-32.7-3.8-43.9.9-84.7-.7-18.4-.8-14.2-1.6-31.7-2.2-32.4-1-40.2,2.3-64,0q-12-1.2-24-1.2c-7.6,0-13.2.4-17.3.7-19.1,1.2-10.8.4-41.7,2.2-21,1.2-34,2.1-52,3.5-8.8.7-10.9.9-16.7,1.2-14.9.9-25.4.8-37.3.7-22-.2-.3.1-56.7-.3-23.5-.2-31.7-.3-42-1.2-5.7-.6-8.7-1-15-1.2-8.4-.3-15.6.2-21-.9-2.3-.5-4.6-.9-7-1.2-1.7-.3-3.3-.5-3.3-.5h-.3s-1.8-.2-5.7-.5a32.58,32.58,0,0,1,4-2.4c.8-.4,1.4-.7,1.4-.9s-2-.1-3.8,0c-2.6.2-5.2.6-5.2.6-8.3-1.2-15-1.9-19.3-2.2-22-1.7-30.6.5-52.3-1.6-2.8-.3-6.1-.7-11.3-.9-11.4-.7-20-.4-22.7-.3-22.9.8-45.8.6-68.7.9-37.8.7-32-.8-84.3-.3-35.1.3-34.6.9-55,.7-15.1-.2-23.5-.7-38,.3-11.6.8-12.6,1.5-31.7,3.1-2.7.2-15.8,1.3-33.3,2.2-10.4.5-18.4.9-28.7.9-3.6,0-23.2.1-25.5-.6,0,0-.4-.1-.5,0-.2.4,4.2,2.4,4,3.5-.3,1.5-10.4.8-22.7,0,0,0-1.2-.1-18.3-.9-11.9-.6-22.5-1.1-34.3-.7-12.5.6-10.9,1.6-30,3.1-8.5.7-15.7.9-30,1.6-5.7.3-17.4.8-27.7.9-22.3.5-38.3-.3-49.7-.7-23.2-.8-24.7.2-76,.7-32.7.3-56.7.2-84,0-62.6-.4-96.1.9-96-1.2,0-1.3-48.3-2.6-48.3-1.2,0,.5-4,2.8-4.3,2.5-1.1-1-15.8-3.9-16-2.5-3,16.8-41.2-2.8-52,.7-4.9,1.5-10.7,3.9-19.3,3.8a42.35,42.35,0,0,1-12.7-2.2c-14.5-4.2-20,4.6-43.3,5h-44s-3.8,0-38.3-.7a20.17,20.17,0,0,0-5.7-2.8,21.92,21.92,0,0,0-8-1.2c-4.7.1-5.2,1.4-11,1.6a13.6,13.6,0,0,1-6-.7c-1.7-.6-2.3-1.3-4.3-1.9a20.32,20.32,0,0,0-4.3-.7c-3.5-.1-4.1.9-9.3,1.6-3.6.5-4.9.3-5.7,0-1.5-.5-1.8-1-3.7-1.9a17.79,17.79,0,0,0-6-1.6c-1.4-.1-3.6.3-8,.9a12.33,12.33,0,0,1-4.7.3,11.59,11.59,0,0,1-4-1.6c-2.2-1.1-4.9-1.2-10.3-1.2-6.6-.1-7.7.9-12,0-1.3-.3-2-.5-4.3-.9a40.62,40.62,0,0,0-7-.9c-6.1-.6-9.2-.9-11,.3a7.3,7.3,0,0,1-3,1.6,7.79,7.79,0,0,1-3.7-.3c-2-.7-2-1.4-4-2.5a24.14,24.14,0,0,0-6-1.6c-3.7-.8-4.4-.6-5-.3A4.92,4.92,0,0,0,242.9,8c-1.3,2.7-.4,4.1-1.7,5.4a4.76,4.76,0,0,1-4,.9c-2.1-.2-2.4-1.2-6.7-3.8a14.56,14.56,0,0,0-5.3-2.2c-.3,0-3-.5-3.3.3s1.4,1.2,3,3.5a17.53,17.53,0,0,1,2.3,5,13.6,13.6,0,0,1-6-.7,23.46,23.46,0,0,1-4.3-1.9c-2,.3-3.3.9-3.3,1.6a.91.91,0,0,0,.4.8,8.3,8.3,0,0,0,3,1.8c0,1-41.3,0-41.3,0-30.1-.8-45.1-1.2-59.3.3-8,.9-18.7,2.3-33.7,2.8-9.8.2-17.2.2-17.2.2-10.2,0-12-.3-17.3,0-2.1.1-3.9.3-5.6.5-5.5.7-8.7,1.3-14.1,2.3-3.5.7-10.4,2-18.8,3.1-3.9.5-7.3.9-9.7,1.2L2860.5,29Z" transform="translate(0 0.1)"/></svg>